# xmcd
#
# Track frame offsets:
#	150
#	16688
#	31592
#	49794
#	70291
#	87748
#	116561
#	135692
#	154533
#	172252
#	193649
#	220854
#	242446
#	270139
#
# Disc length: 3859 seconds
#
# Revision: 0
# Processed by: cddbd v1.4PL0 Copyright (c) Steve Scherf et al.
# Submitted via: dBpowerAMP V4.0
#
DISCID=b50f110e
DTITLE=O-K Sisters Band - The Girls Are Alright
DYEAR=2003
DGENRE=Blues
TTITLE0=The Girls are Alright
TTITLE1=That Smile
TTITLE2=Spider and the Fly
TTITLE3=The Deal
TTITLE4=Lucinda
TTITLE5=Pacin' the Floor
TTITLE6=Five Days
TTITLE7=Just A Kiss
TTITLE8=Helpless For You
TTITLE9=Love
TTITLE10=Meet Me at The Bullfarm
TTITLE11=Let Her Cry
TTITLE12=Ready For You
TTITLE13=The Roads My Middle Name
EXTD=
EXTT0=
EXTT1=
EXTT2=
EXTT3=
EXTT4=
EXTT5=
EXTT6=
EXTT7=
EXTT8=
EXTT9=
EXTT10=
EXTT11=
EXTT12=
EXTT13=
PLAYORDER=
